<?xml version="1.0" encoding="utf-8"?>
<!DOCTYPE svg PUBLIC "-//W3C//DTD SVG 1.1//EN" "http://www.w3.org/Graphics/SVG/1.1/DTD/svg11.dtd">
<svg xmlns="http://www.w3.org/2000/svg" version="1.1">
  <symbol id="codepen-logo" viewBox="0 0 120 120">
    <path d="m 119.67785,41.09396 c 0,0 0,-0.161074 0,-0.161074 0,-0.161073 0,-0.322147 -0.16107,-0.483221 0,-0.161074 0,-0.161074 -0.16108,-0.322148 0,-0.161074 -0.16107,-0.322147 -0.16107,-0.322147 0,-0.161074 0,-0.161074 -0.16107,-0.322148 0,-0.161074 -0.16108,-0.161074 -0.16108,-0.322148 C 118.87248,39 118.71141,39 118.71141,39 c 0,-0.161073 -0.16107,-0.161073 -0.16107,-0.322147 0,0 -0.16108,-0.161074 -0.16108,-0.161074 -0.16107,-0.161074 -0.16107,-0.161074 -0.32215,-0.322148 0,0 -0.16107,-0.161074 -0.16107,-0.161074 -0.16107,-0.161073 -0.16107,-0.161073 -0.32215,-0.322147 0,0 -0.16107,-0.161074 -0.16107,-0.161074 0,0 0,0 -0.16108,0 L 62.818792,1.1476505 c -1.771812,-1.127516 -4.026846,-1.127516 -5.637584,0 L 2.416107,37.550336 c 0,0 0,0 -0.161073,0 -0.161074,0 -0.161074,0.161074 -0.161074,0.161074 -0.161074,0 -0.161074,0.161074 -0.322148,0.322147 0,0 -0.161074,0.161074 -0.161074,0.161074 -0.161074,0.161074 -0.161074,0.161074 -0.322147,0.322147 0,0 -0.161074,0.161074 -0.161074,0.161074 0,0.161074 -0.161074,0.161074 -0.161074,0.322148 0,0 -0.161074,0.161073 -0.161074,0.161073 0,0.161074 -0.161074,0.161074 -0.161074,0.322148 0,0.161074 -0.161074,0.161074 -0.161074,0.322148 0,0.161073 -0.161073,0.322147 -0.161073,0.322147 0,0.161074 0,0.161074 -0.161074,0.322148 0,0.161074 0,0.322148 -0.161074,0.483221 0,0 0,0.161074 0,0.161074 0,0.161074 0,0.483223 0,0.644295 l 0,36.563759 c 0,0.161074 0,0.483222 0,0.644295 0,0 0,0.161074 0,0.161074 0,0.161074 0,0.322148 0.161074,0.483221 0,0.161074 0,0.161074 0.161074,0.322148 0,0.161074 0.161073,0.322148 0.161073,0.322148 0,0.161074 0,0.161074 0.161074,0.322147 0,0.161074 0.161074,0.161074 0.161074,0.322148 0,0 0.161074,0.161074 0.161074,0.161074 0,0.161074 0.161074,0.161074 0.161074,0.322148 0,0 0.161074,0.161073 0.161074,0.161073 0.161073,0.161074 0.161073,0.161074 0.322147,0.322148 0.06765,0 0.161074,0.161074 0.161074,0.161074 0.161074,0.161074 0.161074,0.161074 0.322148,0.322147 0,0 0.161074,0.161074 0.161074,0.161074 0,0 0,0 0.161073,0 l 54.765101,36.402688 c 0.805369,0.64429 1.932886,0.80537 2.899329,0.80537 0.966443,0 1.932886,-0.32215 2.899329,-0.80537 L 117.58389,82.489933 c 0,0 0,0 0.16108,0 0.16107,0 0.16107,-0.161075 0.16107,-0.161075 0.16107,0 0.16107,-0.161072 0.32215,-0.322147 0,0 0.16107,-0.161073 0.16107,-0.161073 0.16108,-0.161075 0.16108,-0.161075 0.32215,-0.322148 0,0 0.16107,-0.161074 0.16107,-0.161074 0,-0.161073 0.16108,-0.161073 0.16108,-0.322148 0,0 0.16107,-0.161073 0.16107,-0.161073 0,-0.161075 0.16107,-0.161075 0.16107,-0.322148 0,-0.161074 0.16108,-0.161074 0.16108,-0.322147 0,-0.161075 0.16107,-0.322148 0.16107,-0.322148 0,-0.161075 0,-0.161075 0.16108,-0.322148 0,-0.161074 0,-0.322147 0.16107,-0.483222 0,0 0,-0.161073 0,-0.161073 0,-0.161074 0,-0.483222 0,-0.644295 l 0,-36.563759 c -0.16107,-0.161073 -0.16107,-0.322147 -0.32215,-0.644295 z M 65.073826,15 105.34228,41.899329 87.46309,53.818792 65.234899,38.838926 65.234899,15 Z m -10.147652,0 0,24 L 32.536913,53.818792 14.496644,41.738255 54.926174,15 Z m -44.456375,36.402685 12.885906,8.536913 -12.885906,8.536912 0,-17.073825 z M 54.926174,105.04027 14.657718,78.302014 32.697987,66.221476 l 22.228187,14.979867 0,23.838927 z M 59.919463,72.181207 41.718121,60.100672 59.919463,48.020135 78.12081,60.100672 59.919463,72.181207 Z m 5.154363,32.859063 0,-24.000001 L 87.30201,66.060403 105.34228,78.14094 65.073826,105.04027 Z M 109.5302,68.637584 96.6443,60.100672 l 12.8859,-8.536913 0,17.073825 z" />
  </symbol>
  <symbol id="github-logo" viewBox="0 0 40 40">
    <path d="m 20.193075,0.28509108 c -11.0091737,0 -19.93883771,8.92966362 -19.93883771,19.93883792 0,8.80734 5.74923551,16.269113 13.57798171,18.960245 0.978593,0.122324 1.345565,-0.489297 1.345565,-0.978594 0,-0.489296 0,-1.712538 0,-3.425076 -5.5045867,1.223242 -6.7278277,-2.691131 -6.7278277,-2.691131 -0.856269,-2.32416 -2.2018352,-2.93578 -2.2018352,-2.93578 -1.8348624,-1.223242 0.1223242,-1.223242 0.1223242,-1.223242 1.957186,0.122324 3.058104,2.079511 3.058104,2.079511 1.8348617,3.058104 4.6483177,2.201835 5.7492347,1.712538 0.122325,-1.345566 0.733945,-2.201835 1.223242,-2.691131 -4.40367,-0.489297 -9.0519877,-2.201835 -9.0519877,-9.908257 0,-2.201835 0.733945,-3.914373 2.079511,-5.382263 -0.244648,-0.489297 -0.856269,-2.568808 0.244648,-5.2599393 0,0 1.7125377,-0.4892966 5.5045867,2.0795103 1.590214,-0.489296 3.302753,-0.6116204 5.015291,-0.6116204 1.712538,0 3.425076,0.2446484 5.01529,0.6116204 3.792049,-2.5688069 5.504588,-2.0795103 5.504588,-2.0795103 1.100917,2.6911313 0.366972,4.7706423 0.244648,5.2599393 1.223242,1.345565 2.079511,3.180428 2.079511,5.382263 0,7.706422 -4.648318,9.296636 -9.051988,9.785932 0.733945,0.611621 1.345566,1.834863 1.345566,3.669725 0,2.691132 0,4.770642 0,5.504587 0,0.489297 0.366972,1.100918 1.345565,0.978594 C 34.627326,36.370718 40.254237,28.908944 40.254237,20.101605 40.131913,9.2147547 31.202249,0.28509108 20.193075,0.28509108 Z"/>
  </symbol>
  <symbol id="linkedin-logo" viewBox="0 0 80 80">
    <path d="M12.344,30.833h12.031v36.147H12.344V30.833z M23.281,24.14c-1.25,1.199-2.899,1.797-4.948,1.797h-0.052 c-1.98,0-3.585-0.598-4.818-1.797c-1.232-1.198-1.849-2.682-1.849-4.452c0-1.806,0.633-3.299,1.901-4.48 c1.267-1.181,2.907-1.77,4.922-1.77s3.628,0.589,4.844,1.77s1.84,2.674,1.875,4.48C25.156,21.458,24.531,22.942,23.281,24.14z M55.625,47.656c0-5.451-2.014-8.176-6.042-8.176c-1.527,0-2.812,0.424-3.854,1.277c-1.041,0.851-1.822,1.882-2.343,3.098 c-0.243,0.625-0.364,1.597-0.364,2.916v20.209H30.989c0.105-21.806,0.105-33.854,0-36.147h12.033v5.261h-0.104 C45.452,32.031,49.079,30,53.803,30c4.166,0,7.517,1.372,10.051,4.115c2.535,2.742,3.802,6.789,3.802,12.135v20.729h-12.03V47.656z M75.599,4.401C72.665,1.466,69.132,0,65,0H15C10.868,0,7.335,1.466,4.401,4.401C1.466,7.335,0,10.868,0,15v50 c0,4.132,1.466,7.665,4.401,10.601C7.335,78.533,10.868,80,15,80h50c4.132,0,7.665-1.467,10.599-4.399 C78.532,72.665,80,69.132,80,65V15C80,10.868,78.532,7.335,75.599,4.401z"/>
  </symbol>
  <symbol id="twitter-logo" viewBox="0 0 40 40">
    <path d="m14,33c12.1,0 18.7,-9.6 18.7,-17.9 0,-0.3 0,-0.5 -0,-0.8 1.3,-0.9 2.4,-2 3.3,-3.3 -1.2,0.5 -2.4,0.8 -3.8,1 1.4,-0.8 2.4,-2 2.9,-3.5 -1.3,0.7 -2.7,1.2 -4.2,1.5 -1.2,-1.2 -2.9,-2 -4.8,-2 -3.6,0 -6.6,2.8 -6.6,6.3 0,0.5 0.1,1 0.2,1.4C14.3,16.5 9.5,13 6.2,9.2c-0.6,0.9 -0.9,2 -0.9,3.2 0,2.2 1.2,4.1 2.9,5.2 -1.1,-0 -2.1,-0.3 -3,-0.8 0,0 0,0.1 0,0.1 0,3.1 2.3,5.6 5.3,6.2 -0.5,0.1 -1.1,0.2 -1.7,0.2 -0.4,0 -0.8,-0 -1.2,-0.1 0.8,2.5 3.3,4.3 6.1,4.4 -2.2,1.7 -5.1,2.7 -8.2,2.7 -0.5,0 -1.1,-0 -1.6,-0.1C6.9,31.9 10.4,33 14.1,33"/>
  </symbol>
  <symbol id="info" viewBox="0 0 40 40">
    <path d="M 20,0 A 20,20 0 0 0 0,20 20,20 0 0 0 20,40 20,20 0 0 0 40,20 20,20 0 0 0 20,0 Z m -0.20963,6.92865 a 2.5773656,2.5773654 0 0 1 2.57734,2.57734 2.5773656,2.5773654 0 0 1 -2.57734,2.57747 2.5773656,2.5773654 0 0 1 -2.57735,-2.57747 2.5773656,2.5773654 0 0 1 2.57735,-2.57734 z m 0.70859,7.09101 1.71068,0 0,11.54076 c 0,0.92395 0.0736,1.56785 0.22421,1.92864 0.14904,0.36159 0.43533,0.63467 0.85574,0.8237 0.4204,0.18746 1.10664,0.35127 2.06041,0.49245 l 0,0.79062 -10.33659,0 0,-0.78984 c 0.72944,-0.13177 1.24788,-0.24389 1.55612,-0.34115 0.30825,-0.0972 0.56946,-0.23135 0.78516,-0.40312 0.21412,-0.16942 0.38364,-0.43532 0.50364,-0.78984 0.12001,-0.35453 0.18438,-0.90992 0.18438,-1.66446 l 0,-7.03633 c 0,-0.68865 -0.0206,-1.24235 -0.0574,-1.66198 -0.0369,-0.41962 -0.16709,-0.75603 -0.39141,-1.00859 -0.22432,-0.25256 -0.56708,-0.44091 -1.02435,-0.56484 -0.45884,-0.12314 -1.10748,-0.22818 -1.94909,-0.31367 l 0,-0.85651 5.87852,-0.14584 z"/>
  </symbol>
  <symbol id="warning" viewBox="0 0 40 40">
    <path d="M 20,0 C 8.9556276,0 0,8.95563 0,20 0,31.04437 8.9556276,40 20,40 31.044373,40 40,31.04437 40,20 40,8.95563 31.0509,0 20,0 Z m 0,7.74622 c 2.048054,0 3.275573,1.38924 3.296354,3.12657 0.0055,0.46341 -0.07618,1.09124 -0.280729,1.93867 -1.360066,5.63458 -1.646871,7.76472 -1.997396,11.5862 0,0 -0.553056,-0.14753 -1.036718,-0.14753 -0.483662,0 -1.052084,0.14753 -1.052084,0.14753 C 18.621103,20.70636 18.387153,18.4861 16.932161,12.69401 16.747762,11.95995 16.693513,11.32959 16.703646,10.87279 16.746546,8.93914 17.951946,7.74622 20,7.74622 Z m 0,17.98008 c 1.297351,4e-5 2.349053,1.05174 2.349089,2.34909 3.6e-5,1.2974 -1.051687,2.34918 -2.349089,2.34922 -1.297402,-4e-5 -2.349125,-1.05182 -2.349089,-2.34922 C 17.650947,26.77804 18.702649,25.72634 20,25.7263 Z"/>
  </symbol>
  <symbol id="link" viewBox="0 0 40 40">
    <path d="m 31.280375,0.1484271 c -2.158539,0 -4.316832,0.8184933 -5.954376,2.4560414 L 15.019916,12.910552 c -3.275096,3.275092 -3.275092,8.634458 0,11.909554 0.638612,0.638624 0.777252,0.571856 1.543429,0.961441 l 3.016417,-3.017204 c -0.869527,-0.162556 -1.124505,-0.0053 -1.811614,-0.692482 -1.800083,-1.800083 -1.800079,-4.612998 0,-6.413073 L 28.074236,5.3527049 c 1.800079,-1.8000795 4.612202,-1.8000795 6.412282,0 1.800079,1.8000795 1.800079,4.6130021 0,6.4130811 l -4.943303,4.943303 c 0.557252,1.635856 0.694416,3.385787 0.41628,5.079386 L 37.81434,13.934437 C 41.089435,10.65934 40.509846,5.8795607 37.234754,2.6044685 35.597202,0.9669204 33.438913,0.1484271 31.280375,0.1484271 Z M 23.127731,14.206618 20.111315,17.22303 c 0.869531,0.162552 1.124501,0.0062 1.811609,0.693265 1.800084,1.800063 1.800079,4.612985 0,6.413069 L 11.616841,34.635476 c -1.8000796,1.800083 -4.612203,1.800083 -6.4122824,0 -1.8000754,-1.800084 -1.8000754,-4.613006 0,-6.41309 L 10.147862,23.279063 C 9.5906095,21.643215 9.4534493,19.892481 9.7315814,18.198882 l -7.2752592,7.275259 c -3.27509627,3.275097 -3.27509627,8.634483 0,11.909538 3.2750922,3.275097 8.6336548,3.275097 11.9087548,0 L 24.67116,27.077609 c 3.275097,-3.275097 3.275101,-8.634442 0,-11.909551 -0.638608,-0.638612 -0.777243,-0.571876 -1.543429,-0.96144 z"/>
  </symbol>
</svg>
