<?xml version="1.0" encoding="utf-8"?>
<!DOCTYPE svg PUBLIC "-//W3C//DTD SVG 1.1//EN" "http://www.w3.org/Graphics/SVG/1.1/DTD/svg11.dtd">
<svg xmlns="http://www.w3.org/2000/svg" version="1.1" viewBox="0 0 120 120">
  <path class="outer-ring" fill="#ffffff" d="M60 0C26.9 0 0 26.9 0 60s26.9 60 60 60c33.2 0 60-26.9 60-60 S93 0 60 0z M60 110.2c-27.7 0-50.2-22.5-50.2-50.2S32.4 9.9 60 9.9 c27.7 0 50.2 22.5 50.2 50.2S87.7 110.2 60 110.2z" />
  <path class="inner-box" fill="#ffffff" d="M97.1 48.3c0 0 0-0.1 0-0.1c0-0.1 0-0.2-0.1-0.3c0-0.1-0.0-0.1-0.1-0.2c0-0.1-0.1-0.2-0.1-0.2c0-0.1 0-0.1-0.1-0.2c0-0.1-0.1-0.1-0.1-0.2c0-0.1-0.1-0.1-0.1-0.1c0-0.1-0.1-0.1-0.1-0.2c0 0-0.1-0.1-0.1-0.1c-0.1-0.1-0.1-0.1-0.2-0.2c0 0-0.1-0.1-0.1-0.1c-0.1-0.1-0.1-0.1-0.2-0.2c0 0-0.1-0.1-0.1-0.1c0 0 0 0-0.1 0L61.8 23.5c-1.1-0.7-2.5-0.7-3.5 0L24.3 46.1c0 0 0 0-0.1 0c-0.1 0-0.1 0.1-0.1 0.1c-0.1 0-0.1 0.1-0.2 0.2c0 0-0.1 0.1-0.1 0.1c-0.1 0.1-0.1 0.1-0.2 0.2c0 0-0.1 0.1-0.1 0.1c0 0.1-0.1 0.1-0.1 0.2c0 0-0.1 0.1-0.1 0.1c0 0.1-0.1 0.1-0.1 0.2c0 0.1-0.1 0.1-0.1 0.2c0 0.1-0.1 0.2-0.1 0.2c0 0.1 0 0.1-0.1 0.2c0 0.1 0 0.2-0.1 0.3c0 0 0 0.1 0 0.1c0 0.1 0 0.3 0 0.4V71.4c0 0.1 0 0.3 0 0.4c0 0 0 0.1 0 0.1 c0 0.1 0 0.2 0.1 0.3c0 0.1 0 0.1 0.1 0.2c0 0.1 0.1 0.2 0.1 0.2c0 0.1 0 0.1 0.1 0.2c0 0.1 0.1 0.1 0.1 0.2c0 0 0.1 0.1 0.1 0.1 c0 0.1 0.1 0.1 0.1 0.2c0 0 0.1 0.1 0.1 0.1c0.1 0.1 0.1 0.1 0.2 0.2 c0.042 0 0.1 0.1 0.1 0.1c0.1 0.1 0.1 0.1 0.2 0.2c0 0 0.1 0.1 0.1 0.1c0 0 0 0 0.1 0L58.3 96.6c0.5 0.4 1.2 0.5 1.8 0.5c0.6 0 1.2-0.2 1.8-0.5l33.9-22.6c0 0 0 0 0.1 0c0.1 0 0.1-0.1 0.1-0.1c0.1 0 0.1-0.1 0.2-0.2c0 0 0.1-0.1 0.1-0.1c0.1-0.1 0.1-0.1 0.2-0.2c0 0 0.1-0.1 0.1-0.1c0-0.1 0.1-0.1 0.1-0.2c0 0 0.1-0.1 0.1-0.1c0-0.1 0.1-0.1 0.1-0.2c0-0.1 0.1-0.1 0.1-0.2c0-0.1 0.1-0.2 0.1-0.2c0-0.1 0-0.1 0.1-0.2c0-0.1 0-0.2 0.1-0.3c0-0 0-0.1 0-0.1c0-0.1 0-0.3 0-0.4V48.7 C97.2 48.6 97.2 48.5 97.1 48.3zM63.2 32.1l25 16.7L77.1 56.2l-13.8-9.3V32.1zM56.9 32.1v14.9L43 56.2l-11.2-7.5L56.9 32.1zM29.3 54.7l8 5.3l-8 5.3V54.7zM56.9 88L31.9 71.4l11.2-7.5l13.8 9.3V88zM60 67.6l-11.3-7.5l11.3-7.5l11.3 7.5L60 67.6zM63.2 88V73.1l13.8-9.3l11.2 7.5L63.2 88zM90.8 65.4l-8-5.3l8-5.3V65.4z" />
</svg>
