<?xml version="1.0" encoding="utf-8"?>
<!DOCTYPE svg PUBLIC "-//W3C//DTD SVG 1.1//EN" "http://www.w3.org/Graphics/SVG/1.1/DTD/svg11.dtd">
<svg version="1.1" id="logo_linkedin" xmlns="http://www.w3.org/2000/svg" xmlns:xlink="http://www.w3.org/1999/xlink" x="0px" y="0px" width="80px" height="80px" viewBox="0 0 80 80">
    <path fill="#ffffff" d="M12.344,30.833h12.031v36.147H12.344V30.833z M23.281,24.14c-1.25,1.199-2.899,1.797-4.948,1.797h-0.052 c-1.98,0-3.585-0.598-4.818-1.797c-1.232-1.198-1.849-2.682-1.849-4.452c0-1.806,0.633-3.299,1.901-4.48 c1.267-1.181,2.907-1.77,4.922-1.77s3.628,0.589,4.844,1.77s1.84,2.674,1.875,4.48C25.156,21.458,24.531,22.942,23.281,24.14z M55.625,47.656c0-5.451-2.014-8.176-6.042-8.176c-1.527,0-2.812,0.424-3.854,1.277c-1.041,0.851-1.822,1.882-2.343,3.098 c-0.243,0.625-0.364,1.597-0.364,2.916v20.209H30.989c0.105-21.806,0.105-33.854,0-36.147h12.033v5.261h-0.104 C45.452,32.031,49.079,30,53.803,30c4.166,0,7.517,1.372,10.051,4.115c2.535,2.742,3.802,6.789,3.802,12.135v20.729h-12.03V47.656z M75.599,4.401C72.665,1.466,69.132,0,65,0H15C10.868,0,7.335,1.466,4.401,4.401C1.466,7.335,0,10.868,0,15v50 c0,4.132,1.466,7.665,4.401,10.601C7.335,78.533,10.868,80,15,80h50c4.132,0,7.665-1.467,10.599-4.399 C78.532,72.665,80,69.132,80,65V15C80,10.868,78.532,7.335,75.599,4.401z"/>
</svg>
